HIERARCHY
ROOT Hips
{
	OFFSET 0.00000 0.00000 0.00000
	CHANNELS 6 Xposition Yposition Zposition Zrotation Yrotation Xrotation 
	JOINT LHipJoint
	{
		OFFSET 0 0 0
		CHANNELS 3 Zrotation Yrotation Xrotation
		JOINT LeftUpLeg
		{
			OFFSET 1.75344 -1.53157 0.77399
			CHANNELS 3 Zrotation Yrotation Xrotation
			JOINT LeftLeg
			{
				OFFSET 2.25415 -6.19323 0.00000
				CHANNELS 3 Zrotation Yrotation Xrotation
				JOINT LeftFoot
				{
					OFFSET 2.30342 -6.32861 0.00000
					CHANNELS 3 Zrotation Yrotation Xrotation
					JOINT LeftToeBase
					{
						OFFSET 0.10958 -0.30108 1.49206
						CHANNELS 3 Zrotation Yrotation Xrotation
						End Site
						{
							OFFSET 0.00000 -0.00000 0.77783
						}
					}
				}
			}
		}
	}
	JOINT RHipJoint
	{
		OFFSET 0 0 0
		CHANNELS 3 Zrotation Yrotation Xrotation
		JOINT RightUpLeg
		{
			OFFSET -1.81912 -1.53156 0.77399
			CHANNELS 3 Zrotation Yrotation Xrotation
			JOINT RightLeg
			{
				OFFSET -2.22882 -6.12365 0.00000
				CHANNELS 3 Zrotation Yrotation Xrotation
				JOINT RightFoot
				{
					OFFSET -2.21943 -6.09785 0.00000
					CHANNELS 3 Zrotation Yrotation Xrotation
					JOINT RightToeBase
					{
						OFFSET -0.18931 -0.52012 1.59379
						CHANNELS 3 Zrotation Yrotation Xrotation
						End Site
						{
							OFFSET -0.00000 -0.00000 0.84686
						}
					}
				}
			}
		}
	}
	JOINT LowerBack
	{
		OFFSET 0 0 0
		CHANNELS 3 Zrotation Yrotation Xrotation
		JOINT Spine
		{
			OFFSET -0.00200 1.66634 -0.14248
			CHANNELS 3 Zrotation Yrotation Xrotation
			JOINT Spine1
			{
				OFFSET -0.00875 1.64542 0.09514
				CHANNELS 3 Zrotation Yrotation Xrotation
				JOINT Neck
				{
					OFFSET 0 0 0
					CHANNELS 3 Zrotation Yrotation Xrotation
					JOINT Neck1
					{
						OFFSET 0.02257 1.59605 0.00839
						CHANNELS 3 Zrotation Yrotation Xrotation
						JOINT Head
						{
							OFFSET -0.10214 1.57530 -0.23335
							CHANNELS 3 Zrotation Yrotation Xrotation
							End Site
							{
								OFFSET -0.03588 1.60717 -0.08062
							}
						}
					}
				}
				JOINT LeftShoulder
				{
					OFFSET 0 0 0
					CHANNELS 3 Zrotation Yrotation Xrotation
					JOINT LeftArm
					{
						OFFSET 2.54983 1.10186 0.40078
						CHANNELS 3 Zrotation Yrotation Xrotation
						JOINT LeftForeArm
						{
							OFFSET 4.28840 -0.00000 0.00000
							CHANNELS 3 Zrotation Yrotation Xrotation
							JOINT LeftHand
							{
								OFFSET 3.06552 -0.00000 -0.00000
								CHANNELS 3 Zrotation Yrotation Xrotation
								JOINT LeftFingerBase
								{
									OFFSET 0 0 0
									CHANNELS 3 Zrotation Yrotation Xrotation
									JOINT LeftHandIndex1
									{
										OFFSET 0.75304 -0.00000 0.00000
										CHANNELS 3 Zrotation Yrotation Xrotation
										End Site
										{
											OFFSET 0.60712 -0.00000 0.00000
										}
									}
								}
								JOINT LThumb
								{
									OFFSET 0 0 0
									CHANNELS 3 Zrotation Yrotation Xrotation
									End Site
									{
										OFFSET 0.61639 -0.00000 0.61639
									}
								}
							}
						}
					}
				}
				JOINT RightShoulder
				{
					OFFSET 0 0 0
					CHANNELS 3 Zrotation Yrotation Xrotation
					JOINT RightArm
					{
						OFFSET -2.60909 1.35448 0.21802
						CHANNELS 3 Zrotation Yrotation Xrotation
						JOINT RightForeArm
						{
							OFFSET -4.52172 -0.00000 -0.00000
							CHANNELS 3 Zrotation Yrotation Xrotation
							JOINT RightHand
							{
								OFFSET -2.89140 -0.00000 0.00000
								CHANNELS 3 Zrotation Yrotation Xrotation
								JOINT RightFingerBase
								{
									OFFSET 0 0 0
									CHANNELS 3 Zrotation Yrotation Xrotation
									JOINT RightHandIndex1
									{
										OFFSET -0.68054 -0.00000 0.00000
										CHANNELS 3 Zrotation Yrotation Xrotation
										End Site
										{
											OFFSET -0.54867 -0.00000 0.00000
										}
									}
								}
								JOINT RThumb
								{
									OFFSET 0 0 0
									CHANNELS 3 Zrotation Yrotation Xrotation
									End Site
									{
										OFFSET -0.55705 -0.00000 0.55705
									}
								}
							}
						}
					}
				}
			}
		}
	}
}
MOTION
Frames: 9
Frame Time: 0.222222
0.00 0.00 0.00 0 0 0 0 0 0 -21 0 0 0 0 0 0 0 0 0 0 0 0 0 0 21 0 0 0 0 0 0 0 0 0 0 0 0 0 0 0 0 0 0 0 0 0 0 -16 0 0 21 0 0 11 0 0 0 -8 0 0 0 0 0 0 0 0 0 0 0 0 0 0 0 0 0 0 0 0 8 0 0 0 0 0 0 0 0 0 0 0 0 0 0 0 0 0
0.00 0.00 0.00 -178.8180 3.7887 -173.9020 0.0000 0.0000 0.0000 -21.6104 -13.4213 -16.9930 3.6576 11.6903 34.6450 2.1978 2.2417 -28.8966 2.4848 -9.8102 -28.3644 0.0000 0.0000 0.0000 25.4436 14.1263 -12.1827 -2.7862 -10.3406 30.0869 -0.8053 -13.8591 -27.0333 -0.0474 1.4049 -3.8636 2.0703 0.8442 10.6527 0.1905 1.4631 -3.3124 -1.2371 0.5966 -9.4930 -5.3754 -1.8821 -6.9371 6.1579 -2.2682 2.5364 2.8734 -1.0032 2.1954 -0.0000 0.0000 0.0000 -85.7445 9.9703 29.4560 17.0049 -26.8642 -4.0895 -0.0000 -0.0000 15.0218 1.9279 -36.3706 -1.1436 -7.1250 0.0000 -0.0000 -16.8512 -5.0451 19.0803 -0.0000 0.0000 0.0000 81.7993 -12.4860 42.3534 -17.3620 27.3325 -4.2522 0.0000 0.0000 27.0413 -12.2178 -51.3580 9.5994 7.1250 -0.0000 -0.0000 -13.0323 10.0696 -169.1552
0.00 0.00 0.00 -178.9560 2.6094 -172.1840 0.0000 0.0000 0.0000 -20.5822 -15.6431 -27.0398 7.2545 15.5425 49.8304 3.2506 -0.6188 -34.0409 2.2476 -9.3639 -26.9404 0.0000 0.0000 0.0000 24.3207 14.5270 -23.7316 -6.5963 -14.9823 47.3304 -2.2201 -11.9611 -34.4823 -0.0555 1.5197 -4.1799 2.5736 0.5971 11.3781 0.3822 1.2303 -2.8175 -1.2806 0.4643 -9.3790 -5.1267 -1.9736 -8.5257 5.2617 -2.0951 -0.5534 2.5092 -0.8689 1.4321 -0.0000 0.0000 0.0000 -88.4027 6.8738 29.4283 16.5828 -26.3045 -3.9007 -0.0000 -0.0000 15.6549 3.9424 -38.7041 -2.4675 -7.1250 0.0000 -0.0000 -15.9352 -7.4877 18.5637 -0.0000 0.0000 0.0000 81.7696 -10.2435 41.4897 -17.1252 27.0225 -4.1441 0.0000 0.0000 26.7263 -13.7429 -49.1524 10.4814 7.1250 -0.0000 -0.0000 -12.1948 11.7665 -170.3210
0.00 0.00 0.00 -180.0440 -1.2198 -169.7850 0.0000 0.0000 0.0000 -19.3323 -21.9486 -36.4150 11.6826 18.2532 64.9792 4.1705 -3.3926 -38.0053 1.5683 -7.9023 -22.4176 0.0000 0.0000 0.0000 22.5852 16.9737 -34.4293 -11.6317 -18.2306 64.8166 -3.1527 -15.2781 -41.4282 -0.0001 0.0727 -0.1997 1.3241 0.5674 12.5652 0.5313 1.0229 -3.0183 -0.3915 0.4228 -10.3258 -3.7436 -1.1676 -12.6798 2.5667 -1.4899 -2.1986 1.3849 -0.8354 1.5197 -0.0000 -0.0000 0.0000 -89.0849 8.2159 26.7180 17.5650 -27.5966 -4.3458 -0.0000 -0.0000 12.3518 10.7506 -42.9910 -7.3769 -7.1250 0.0000 -0.0000 -12.9787 -12.5507 15.8516 -0.0000 -0.0000 0.0000 78.8301 -7.0903 47.8195 -17.0191 26.8830 -4.0960 0.0000 0.0000 27.8701 -2.9889 -50.1837 2.2966 7.1250 -0.0000 -0.0000 -17.0118 13.1787 -166.7021
0.00 0.00 0.00 -178.0870 -24.1857 -174.2620 0.0000 0.0000 0.0000 -18.9530 -21.6203 -14.4752 3.7228 11.7821 34.9654 0.3585 -14.5001 -13.8840 0.3576 -3.8419 -10.6323 0.0000 0.0000 0.0000 30.1569 -5.8801 -13.4254 -2.4626 -9.7695 28.2335 0.5634 -20.6469 -24.5609 -0.0056 -0.4839 1.3297 1.7454 2.9557 6.5477 0.7875 4.1143 -5.0327 -0.7156 1.8762 -8.9312 1.3431 4.2583 -13.3355 -1.6888 5.6233 7.0299 -0.3116 2.6947 4.3499 -0.0000 -0.0000 0.0000 -85.5446 19.6113 27.7412 16.4736 -26.1587 -3.8524 -0.0000 -0.0000 22.6201 10.7145 -39.7962 -6.9053 -7.1250 0.0000 -0.0000 -12.5917 -9.4603 14.8227 -0.0000 -0.0000 0.0000 78.0920 -16.1459 52.9270 -18.1161 28.3055 -4.6041 0.0000 0.0000 39.0516 9.9067 -55.7857 -8.2181 7.1250 -0.0000 -0.0000 -21.6360 10.0188 -161.0130
0.00 0.00 0.00 -178.4810 -30.6268 -175.1170 0.0000 0.0000 0.0000 -20.0656 -24.5995 -6.4783 1.7305 8.2806 23.5696 -0.0729 -5.3286 4.4476 0.0431 -1.3402 -3.6854 0.0000 0.0000 0.0000 29.9203 -2.2192 -4.9007 -1.0591 -6.5433 18.3693 3.5308 -31.0921 -14.3843 -0.2330 -3.1069 8.5766 1.1955 2.8921 4.6056 0.4451 3.8859 -5.3785 -0.6412 1.7899 -8.1800 2.6975 6.3467 -12.3999 -2.4834 8.3547 9.0846 -0.5380 4.0204 4.9652 0.0000 0.0000 0.0000 -85.1272 21.4876 26.7068 16.3477 -25.9899 -3.7971 -0.0000 -0.0000 24.3591 4.1842 -38.8026 -2.6248 -7.1250 0.0000 -0.0000 -15.8189 -7.6096 18.4468 0.0000 0.0000 0.0000 79.5724 -19.2303 52.8196 -17.0663 26.9452 -4.1174 0.0000 0.0000 39.5191 13.7448 -54.6989 -11.2893 7.1250 -0.0000 -0.0000 -23.2328 11.6073 -160.1689
0.00 0.00 0.00 -180.7970 -42.0388 -172.2230 0.0000 0.0000 0.0000 -23.2644 -31.7536 -1.6251 0.7216 5.4281 15.1338 -1.0125 17.5589 -8.4520 4.1962 12.4170 37.2235 0.0000 0.0000 0.0000 27.0823 10.5472 -1.5725 -0.8421 -5.8535 16.3600 5.9006 -38.6604 -21.3742 -5.5447 -13.9721 43.1260 1.7111 2.4157 1.6474 -0.5919 3.1147 -5.8949 -1.7992 1.3464 -6.9343 3.9831 8.6102 -11.7213 -4.5391 11.5327 11.0116 -1.0608 5.4432 5.7378 0.0000 0.0000 0.0000 -84.7329 19.9043 25.3151 14.5778 -23.5547 -3.0552 -0.0000 -0.0000 28.7823 -15.2054 -29.7722 7.6862 -7.1250 0.0000 -0.0000 -25.8914 1.7213 28.1849 0.0000 0.0000 0.0000 79.5968 -23.7878 55.8574 -18.8241 29.1996 -4.9448 0.0000 0.0000 17.6918 -3.6676 -59.8877 3.1737 7.1250 -0.0000 -0.0000 -16.6383 3.8981 -163.8211
0.00 0.00 0.00 -179.8690 -60.4998 -172.6520 0.0000 0.0000 0.0000 -24.5650 -19.1728 -6.2150 0.9439 6.1877 17.3299 -1.5673 21.5374 -9.6739 3.8781 11.9964 35.7192 0.0000 0.0000 0.0000 26.4925 20.2812 -2.4563 -0.8748 -5.9632 16.6776 3.7080 -34.7365 1.8310 -0.2471 -3.1986 8.8321 5.4950 0.4790 5.7236 0.0160 1.0849 -5.8594 -3.2065 0.1050 -9.3508 3.9592 8.1108 -11.8802 -5.8243 11.0459 11.2713 -1.4874 5.0992 5.9027 0.0000 0.0000 0.0000 -83.7930 15.4978 33.5402 14.2893 -23.1468 -2.9409 -0.0000 -0.0000 32.0295 -26.9975 -23.6161 11.5355 -7.1250 0.0000 -0.0000 -32.3403 6.1945 34.9941 0.0000 0.0000 0.0000 77.2689 -28.0361 48.2587 -16.8989 26.7243 -4.0418 0.0000 0.0000 31.8805 1.5276 -48.5003 -1.1442 7.1250 -0.0000 -0.0000 -19.1677 15.6504 -165.8906
0.00 0.00 0.00 -284.9350 -87.3353 -66.8647 0.0000 0.0000 0.0000 -26.9637 -12.0903 -7.6604 0.9063 6.0668 16.9783 -0.8149 21.9588 8.3591 0.2298 -3.0856 -8.5173 0.0000 0.0000 0.0000 21.3652 25.7398 -7.0609 -1.4569 -7.6291 21.5931 0.6361 -25.9321 13.9928 -0.0901 -1.9359 5.3284 3.6845 -1.6169 5.3164 0.9749 -1.8273 -5.1983 -0.7980 -1.1137 -8.5549 -2.6585 1.2187 -10.0965 -1.4795 2.1520 8.1505 0.1272 0.8818 4.5208 0.0000 -0.0000 0.0000 -84.0480 7.1766 37.1137 15.8387 -25.3015 -3.5768 -0.0000 -0.0000 26.7876 -15.5093 -29.2791 7.7287 -7.1250 0.0000 -0.0000 -26.0902 2.1666 28.2307 0.0000 -0.0000 0.0000 71.0810 -33.2667 50.2322 -18.8145 29.1875 -4.9401 0.0000 0.0000 23.0351 14.4025 -48.4368 -10.8766 7.1250 -0.0000 -0.0000 -24.9866 17.8674 -162.0919
